<mxfile host="app.diagrams.net" agent="Mozilla/5.0 (Windows NT 10.0; Win64; x64) AppleWebKit/537.36 (KHTML, like Gecko) Chrome/127.0.0.0 Safari/537.36 OPR/113.0.0.0" version="24.8.4">
  <diagram name="Page-1" id="XzYYv9XOL4wmaIO5Gyl8">
    <mxGraphModel dx="1741" dy="944" grid="1" gridSize="10" guides="1" tooltips="1" connect="1" arrows="1" fold="1" page="1" pageScale="1" pageWidth="827" pageHeight="1169" math="0" shadow="0">
      <root>
        <mxCell id="0" />
        <mxCell id="1" parent="0" />
        <mxCell id="hUBRZN0mjowcYZs2fctl-2" value="" style="rounded=0;whiteSpace=wrap;html=1;" vertex="1" parent="1">
          <mxGeometry x="150" y="80" width="530" height="880" as="geometry" />
        </mxCell>
        <mxCell id="hUBRZN0mjowcYZs2fctl-27" style="edgeStyle=orthogonalEdgeStyle;rounded=0;orthogonalLoop=1;jettySize=auto;html=1;entryX=0.5;entryY=0;entryDx=0;entryDy=0;" edge="1" parent="1" source="hUBRZN0mjowcYZs2fctl-3" target="hUBRZN0mjowcYZs2fctl-15">
          <mxGeometry relative="1" as="geometry">
            <Array as="points">
              <mxPoint x="70" y="300" />
              <mxPoint x="470" y="300" />
            </Array>
          </mxGeometry>
        </mxCell>
        <mxCell id="hUBRZN0mjowcYZs2fctl-29" style="rounded=0;orthogonalLoop=1;jettySize=auto;html=1;" edge="1" parent="1" source="hUBRZN0mjowcYZs2fctl-3" target="hUBRZN0mjowcYZs2fctl-13">
          <mxGeometry relative="1" as="geometry" />
        </mxCell>
        <mxCell id="hUBRZN0mjowcYZs2fctl-31" style="edgeStyle=orthogonalEdgeStyle;rounded=0;orthogonalLoop=1;jettySize=auto;html=1;" edge="1" parent="1" source="hUBRZN0mjowcYZs2fctl-3" target="hUBRZN0mjowcYZs2fctl-10">
          <mxGeometry relative="1" as="geometry" />
        </mxCell>
        <mxCell id="hUBRZN0mjowcYZs2fctl-3" value="&lt;font style=&quot;font-size: 16px;&quot;&gt;Vétérinaire&lt;/font&gt;" style="ellipse;whiteSpace=wrap;html=1;aspect=fixed;" vertex="1" parent="1">
          <mxGeometry x="10" y="170" width="120" height="120" as="geometry" />
        </mxCell>
        <mxCell id="hUBRZN0mjowcYZs2fctl-21" style="rounded=0;orthogonalLoop=1;jettySize=auto;html=1;entryX=0;entryY=0.5;entryDx=0;entryDy=0;" edge="1" parent="1" source="hUBRZN0mjowcYZs2fctl-4" target="hUBRZN0mjowcYZs2fctl-11">
          <mxGeometry relative="1" as="geometry" />
        </mxCell>
        <mxCell id="hUBRZN0mjowcYZs2fctl-23" style="rounded=0;orthogonalLoop=1;jettySize=auto;html=1;" edge="1" parent="1" source="hUBRZN0mjowcYZs2fctl-4" target="hUBRZN0mjowcYZs2fctl-12">
          <mxGeometry relative="1" as="geometry" />
        </mxCell>
        <mxCell id="hUBRZN0mjowcYZs2fctl-24" style="rounded=0;orthogonalLoop=1;jettySize=auto;html=1;" edge="1" parent="1" source="hUBRZN0mjowcYZs2fctl-4" target="hUBRZN0mjowcYZs2fctl-9">
          <mxGeometry relative="1" as="geometry" />
        </mxCell>
        <mxCell id="hUBRZN0mjowcYZs2fctl-25" style="rounded=0;orthogonalLoop=1;jettySize=auto;html=1;" edge="1" parent="1" source="hUBRZN0mjowcYZs2fctl-4" target="hUBRZN0mjowcYZs2fctl-14">
          <mxGeometry relative="1" as="geometry" />
        </mxCell>
        <mxCell id="hUBRZN0mjowcYZs2fctl-26" style="rounded=0;orthogonalLoop=1;jettySize=auto;html=1;" edge="1" parent="1" source="hUBRZN0mjowcYZs2fctl-4" target="hUBRZN0mjowcYZs2fctl-15">
          <mxGeometry relative="1" as="geometry" />
        </mxCell>
        <mxCell id="hUBRZN0mjowcYZs2fctl-4" value="&lt;font style=&quot;font-size: 16px;&quot;&gt;Administrateur&lt;/font&gt;" style="ellipse;whiteSpace=wrap;html=1;aspect=fixed;" vertex="1" parent="1">
          <mxGeometry x="10" y="440" width="120" height="120" as="geometry" />
        </mxCell>
        <mxCell id="hUBRZN0mjowcYZs2fctl-28" style="edgeStyle=orthogonalEdgeStyle;rounded=0;orthogonalLoop=1;jettySize=auto;html=1;" edge="1" parent="1" source="hUBRZN0mjowcYZs2fctl-5" target="hUBRZN0mjowcYZs2fctl-15">
          <mxGeometry relative="1" as="geometry">
            <Array as="points">
              <mxPoint x="470" y="710" />
            </Array>
          </mxGeometry>
        </mxCell>
        <mxCell id="hUBRZN0mjowcYZs2fctl-32" style="rounded=0;orthogonalLoop=1;jettySize=auto;html=1;" edge="1" parent="1" source="hUBRZN0mjowcYZs2fctl-5" target="hUBRZN0mjowcYZs2fctl-16">
          <mxGeometry relative="1" as="geometry" />
        </mxCell>
        <mxCell id="hUBRZN0mjowcYZs2fctl-34" style="rounded=0;orthogonalLoop=1;jettySize=auto;html=1;" edge="1" parent="1" source="hUBRZN0mjowcYZs2fctl-5" target="hUBRZN0mjowcYZs2fctl-33">
          <mxGeometry relative="1" as="geometry" />
        </mxCell>
        <mxCell id="hUBRZN0mjowcYZs2fctl-5" value="&lt;font style=&quot;font-size: 18px;&quot;&gt;Employé&lt;/font&gt;" style="ellipse;whiteSpace=wrap;html=1;aspect=fixed;" vertex="1" parent="1">
          <mxGeometry x="10" y="670" width="120" height="120" as="geometry" />
        </mxCell>
        <mxCell id="hUBRZN0mjowcYZs2fctl-19" style="rounded=0;orthogonalLoop=1;jettySize=auto;html=1;" edge="1" parent="1" source="hUBRZN0mjowcYZs2fctl-6" target="hUBRZN0mjowcYZs2fctl-18">
          <mxGeometry relative="1" as="geometry" />
        </mxCell>
        <mxCell id="hUBRZN0mjowcYZs2fctl-20" style="rounded=0;orthogonalLoop=1;jettySize=auto;html=1;" edge="1" parent="1" source="hUBRZN0mjowcYZs2fctl-6" target="hUBRZN0mjowcYZs2fctl-17">
          <mxGeometry relative="1" as="geometry" />
        </mxCell>
        <mxCell id="hUBRZN0mjowcYZs2fctl-6" value="&lt;font style=&quot;font-size: 18px;&quot;&gt;Visiteur&lt;/font&gt;" style="ellipse;whiteSpace=wrap;html=1;aspect=fixed;" vertex="1" parent="1">
          <mxGeometry x="690" y="440" width="120" height="120" as="geometry" />
        </mxCell>
        <mxCell id="hUBRZN0mjowcYZs2fctl-7" style="edgeStyle=orthogonalEdgeStyle;rounded=0;orthogonalLoop=1;jettySize=auto;html=1;exitX=0.5;exitY=1;exitDx=0;exitDy=0;" edge="1" parent="1" source="hUBRZN0mjowcYZs2fctl-2" target="hUBRZN0mjowcYZs2fctl-2">
          <mxGeometry relative="1" as="geometry" />
        </mxCell>
        <mxCell id="hUBRZN0mjowcYZs2fctl-9" value="&lt;font style=&quot;font-size: 16px;&quot;&gt;Modifier les horaires&lt;/font&gt;" style="ellipse;whiteSpace=wrap;html=1;" vertex="1" parent="1">
          <mxGeometry x="260" y="510" width="140" height="100" as="geometry" />
        </mxCell>
        <mxCell id="hUBRZN0mjowcYZs2fctl-10" value="&lt;font style=&quot;font-size: 16px;&quot;&gt;Saisir des informations sur les animaux&lt;/font&gt;" style="ellipse;whiteSpace=wrap;html=1;" vertex="1" parent="1">
          <mxGeometry x="260" y="180" width="140" height="100" as="geometry" />
        </mxCell>
        <mxCell id="hUBRZN0mjowcYZs2fctl-11" value="&lt;font style=&quot;font-size: 16px;&quot;&gt;Créer un compte (employé, vétérinaire)&lt;/font&gt;" style="ellipse;whiteSpace=wrap;html=1;" vertex="1" parent="1">
          <mxGeometry x="160" y="310" width="140" height="100" as="geometry" />
        </mxCell>
        <mxCell id="hUBRZN0mjowcYZs2fctl-12" value="&lt;font style=&quot;font-size: 16px;&quot;&gt;Modifier les services&lt;/font&gt;" style="ellipse;whiteSpace=wrap;html=1;" vertex="1" parent="1">
          <mxGeometry x="160" y="600" width="140" height="100" as="geometry" />
        </mxCell>
        <mxCell id="hUBRZN0mjowcYZs2fctl-13" value="&lt;font style=&quot;font-size: 16px;&quot;&gt;Remplir les comptes rendus&lt;/font&gt;" style="ellipse;whiteSpace=wrap;html=1;" vertex="1" parent="1">
          <mxGeometry x="160" y="90" width="140" height="100" as="geometry" />
        </mxCell>
        <mxCell id="hUBRZN0mjowcYZs2fctl-14" value="&lt;font style=&quot;font-size: 16px;&quot;&gt;Modifier les habitats et les animaux&lt;/font&gt;" style="ellipse;whiteSpace=wrap;html=1;" vertex="1" parent="1">
          <mxGeometry x="260" y="390" width="140" height="100" as="geometry" />
        </mxCell>
        <mxCell id="hUBRZN0mjowcYZs2fctl-15" value="&lt;font style=&quot;font-size: 18px;&quot;&gt;Connexion&lt;/font&gt;" style="ellipse;whiteSpace=wrap;html=1;" vertex="1" parent="1">
          <mxGeometry x="410" y="460" width="120" height="80" as="geometry" />
        </mxCell>
        <mxCell id="hUBRZN0mjowcYZs2fctl-16" value="&lt;font style=&quot;font-size: 16px;&quot;&gt;Valider ou invalider un avis&lt;/font&gt;" style="ellipse;whiteSpace=wrap;html=1;" vertex="1" parent="1">
          <mxGeometry x="160" y="827" width="140" height="103" as="geometry" />
        </mxCell>
        <mxCell id="hUBRZN0mjowcYZs2fctl-17" value="&lt;font style=&quot;font-size: 16px;&quot;&gt;Formulaire de contact&lt;/font&gt;" style="ellipse;whiteSpace=wrap;html=1;" vertex="1" parent="1">
          <mxGeometry x="500" y="600" width="140" height="100" as="geometry" />
        </mxCell>
        <mxCell id="hUBRZN0mjowcYZs2fctl-18" value="&lt;font style=&quot;font-size: 16px;&quot;&gt;Laissser un commentaire&lt;/font&gt;" style="ellipse;whiteSpace=wrap;html=1;" vertex="1" parent="1">
          <mxGeometry x="500" y="310" width="140" height="100" as="geometry" />
        </mxCell>
        <mxCell id="hUBRZN0mjowcYZs2fctl-22" style="rounded=0;orthogonalLoop=1;jettySize=auto;html=1;entryX=0.085;entryY=0.716;entryDx=0;entryDy=0;entryPerimeter=0;" edge="1" parent="1" source="hUBRZN0mjowcYZs2fctl-5" target="hUBRZN0mjowcYZs2fctl-12">
          <mxGeometry relative="1" as="geometry" />
        </mxCell>
        <mxCell id="hUBRZN0mjowcYZs2fctl-33" value="&lt;font style=&quot;font-size: 16px;&quot;&gt;Nourir les animaux&lt;/font&gt;" style="ellipse;whiteSpace=wrap;html=1;" vertex="1" parent="1">
          <mxGeometry x="260" y="720" width="140" height="103" as="geometry" />
        </mxCell>
      </root>
    </mxGraphModel>
  </diagram>
</mxfile>
